<?xml version="1.0" standalone="no"?>
<!DOCTYPE svg PUBLIC "-//W3C//DTD SVG 20010904//EN"
 "http://www.w3.org/TR/2001/REC-SVG-20010904/DTD/svg10.dtd">
<svg version="1.0" xmlns="http://www.w3.org/2000/svg"
 width="583.000000pt" height="360.000000pt" viewBox="0 0 583.000000 360.000000"
 preserveAspectRatio="xMidYMid meet">

<g transform="translate(0.000000,360.000000) scale(0.100000,-0.100000)"
fill="#000000" stroke="none">
<path d="M0 1800 l0 -1800 2915 0 2915 0 0 1800 0 1800 -2915 0 -2915 0 0
-1800z m1484 1535 c106 -214 141 -370 141 -620 0 -195 -18 -307 -72 -459 -42
-118 -152 -321 -166 -306 -51 59 -146 262 -181 386 -46 164 -51 203 -51 389 1
149 5 198 23 285 28 126 89 283 157 403 l50 88 22 -28 c13 -16 47 -77 77 -138z
m756 -630 l0 -55 -75 0 -75 0 0 -375 0 -375 -85 0 -85 0 0 423 c0 233 3 427 7
430 3 4 75 7 160 7 l153 0 0 -55z m370 38 c0 -9 16 -174 35 -367 19 -193 38
-379 41 -413 l6 -63 -80 0 -79 0 -7 61 c-3 34 -6 84 -6 110 l0 49 -39 0 -38 0
-7 -52 c-3 -29 -6 -79 -6 -110 l0 -58 -86 0 -85 0 5 45 c10 78 16 128 21 185
5 61 34 345 40 400 2 19 7 71 10 115 10 125 -3 115 146 115 113 0 129 -2 129
-17z m453 6 c65 -18 77 -50 77 -206 0 -123 -2 -134 -22 -157 -13 -14 -39 -29
-58 -35 -33 -9 -34 -9 -7 -10 17 -1 40 -13 58 -30 l29 -29 0 -152 c0 -221 -8
-230 -194 -230 -99 0 -117 3 -139 20 -35 28 -47 76 -47 188 l0 92 85 0 85 0 0
-90 c0 -74 3 -92 16 -97 27 -10 34 17 34 133 0 130 -6 141 -85 146 l-50 3 -3
48 -3 47 55 0 c77 0 86 16 86 141 0 72 -4 100 -15 109 -26 21 -35 0 -35 -81
l0 -79 -86 0 -86 0 4 104 c3 94 6 107 28 131 13 14 38 29 54 34 44 13 174 13
219 0z m567 -419 l0 -430 -75 0 -75 0 0 375 0 375 -35 0 -35 0 0 -375 0 -375
-80 0 -80 0 0 430 0 430 190 0 190 0 0 -430z m454 407 c48 -32 56 -68 56 -268
0 -205 -8 -236 -65 -263 -19 -9 -59 -16 -94 -16 l-61 0 0 -145 0 -145 -85 0
-85 0 0 431 0 431 153 -4 c127 -2 158 -6 181 -21z m480 -6 c15 -14 30 -41 36
-60 13 -47 13 -645 0 -692 -18 -66 -36 -74 -179 -77 -126 -3 -127 -3 -154 23
-14 15 -29 41 -32 59 -3 17 -5 185 -3 372 3 321 4 343 22 363 29 32 70 41 183
38 92 -2 104 -5 127 -26z m356 23 c0 -12 101 -578 103 -581 2 -1 23 109 46
245 24 136 47 269 53 295 l10 48 106 -3 107 -3 3 -427 2 -428 -85 0 -85 0 -1
268 c-1 284 -2 286 -34 67 -19 -126 -46 -293 -50 -312 -5 -21 -11 -23 -70 -23
-36 0 -65 1 -66 3 0 1 -20 121 -44 267 l-43 265 -1 -267 -1 -268 -85 0 -85 0
0 423 c0 233 3 427 7 430 8 9 213 9 213 1z m-3850 -324 l0 -319 -37 -6 c-184
-27 -311 -113 -386 -263 -106 -213 -50 -456 139 -598 94 -70 158 -89 294 -89
105 0 120 2 175 28 208 97 281 270 175 414 -75 102 -233 124 -337 47 l-23 -16
0 136 0 136 313 -2 312 -3 3 -292 2 -291 -61 -56 c-114 -103 -249 -169 -412
-202 -106 -22 -281 -15 -385 15 -383 111 -644 481 -619 879 6 95 38 234 59
259 6 7 8 13 4 13 -3 0 6 24 20 53 120 236 339 405 599 460 39 9 91 16 118 16
l47 1 0 -320z m4280 -1105 l0 -285 -1715 0 -1715 0 0 285 0 285 1715 0 1715 0
0 -285z"/>
<path d="M1368 3329 c-63 -109 -127 -305 -147 -454 -12 -86 -13 -282 -1 -365
l7 -55 2 70 c2 97 25 244 55 345 31 106 87 242 102 247 16 5 79 -148 114 -277
29 -102 49 -228 51 -320 l2 -45 8 45 c13 77 10 300 -6 400 -19 115 -70 270
-123 376 l-39 78 -25 -45z"/>
<path d="M1377 2524 c-59 -114 -68 -294 -22 -431 15 -46 31 -80 36 -77 5 2 20
42 35 87 42 133 33 323 -20 424 l-14 27 -15 -30z"/>
<path d="M2462 2462 c-17 -258 -18 -242 18 -242 l31 0 -6 73 c-3 39 -10 135
-15 211 -5 76 -11 141 -13 142 -2 2 -9 -81 -15 -184z"/>
<path d="M3920 2470 l0 -180 29 0 c38 0 41 13 41 191 0 154 -4 169 -47 169
l-23 0 0 -180z"/>
<path d="M4386 2635 c-9 -25 -7 -598 3 -613 4 -8 19 -12 32 -10 l24 3 0 315 0
315 -26 3 c-17 2 -29 -3 -33 -13z"/>
<path d="M2080 1335 l0 -185 40 0 40 0 0 80 c0 79 0 80 25 80 25 0 25 -1 25
-80 l0 -80 45 0 45 0 0 185 0 185 -45 0 -45 0 0 -76 c0 -72 -1 -75 -22 -72
-21 3 -23 9 -26 76 l-3 72 -39 0 -40 0 0 -185z"/>
<path d="M2810 1335 l0 -185 100 0 100 0 0 35 0 35 -55 0 -55 0 0 45 0 45 50
0 c49 0 50 1 50 30 0 29 -1 30 -50 30 l-50 0 0 40 0 40 55 0 55 0 0 35 0 35
-100 0 -100 0 0 -185z"/>
<path d="M3590 1505 c0 -9 -9 -15 -25 -15 -36 0 -71 -19 -84 -47 -6 -13 -11
-64 -11 -114 0 -82 2 -92 25 -114 15 -16 35 -25 55 -25 23 0 33 -5 37 -20 4
-16 14 -20 49 -20 31 0 44 4 44 14 0 16 21 26 54 26 46 0 61 33 64 145 3 94 2
105 -17 124 -11 11 -39 24 -61 27 -24 4 -40 12 -40 20 0 10 -14 14 -45 14 -33
0 -45 -4 -45 -15z m0 -165 c0 -70 -3 -90 -14 -90 -20 0 -26 23 -26 100 0 64 5
76 33 79 4 1 7 -39 7 -89z m125 67 c3 -12 5 -52 3 -87 -2 -52 -6 -65 -20 -68
-16 -3 -18 6 -18 87 0 74 3 91 15 91 8 0 17 -10 20 -23z"/>
<path d="M4250 1485 c0 -33 2 -35 35 -35 l35 0 0 -150 0 -150 40 0 40 0 0 150
0 150 35 0 c33 0 35 2 35 35 l0 35 -110 0 -110 0 0 -35z"/>
<path d="M4980 1335 l0 -185 79 0 c108 0 124 13 129 107 4 66 3 71 -23 91 -18
14 -42 22 -66 22 l-39 0 0 75 0 75 -40 0 -40 0 0 -185z m126 -49 c10 -42 1
-71 -23 -74 -21 -3 -23 0 -23 47 0 44 3 51 20 51 12 0 22 -9 26 -24z"/>
</g>
</svg>
